<mxfile host="app.diagrams.net" agent="Mozilla/5.0 (Windows NT 10.0; Win64; x64) AppleWebKit/537.36 (KHTML, like Gecko) Chrome/137.0.0.0 Safari/537.36" version="26.0.15">
  <diagram name="CI-CD-Architecture" id="0">
    <mxGraphModel dx="948" dy="517" grid="1" gridSize="10" guides="1" tooltips="1" connect="1" arrows="1" fold="1" page="1" pageScale="1" pageWidth="1400" pageHeight="900" background="none" math="0" shadow="0" adaptiveColors="auto">
      <root>
        <mxCell id="0" />
        <mxCell id="1" parent="0" />
        <mxCell id="ns" value="Namespace (per-job)" style="shape=mxgraph.k8s.ns;whiteSpace=wrap;html=1;fontSize=14;fontColor=#1e293b;" parent="1" vertex="1">
          <mxGeometry x="60" y="60" width="100" height="80" as="geometry" />
        </mxCell>
        <mxCell id="job" value="Job" style="shape=mxgraph.k8s.job;whiteSpace=wrap;html=1;fontSize=14;fontColor=#1e293b;" parent="1" vertex="1">
          <mxGeometry x="200" y="60" width="100" height="80" as="geometry" />
        </mxCell>
        <mxCell id="pod" value="Ephemeral CI/CD Runner Pod" style="shape=mxgraph.k8s.pod;whiteSpace=wrap;html=1;fontSize=14;fontColor=#1e293b;" parent="1" vertex="1">
          <mxGeometry x="420" y="60" width="100" height="80" as="geometry" />
        </mxCell>
        <mxCell id="runner" value="Runner Container" style="shape=mxgraph.k8s.container;whiteSpace=wrap;html=1;fontSize=12;fontColor=#1e293b;" parent="1" vertex="1">
          <mxGeometry x="400" y="170" width="80" height="60" as="geometry" />
        </mxCell>
        <mxCell id="builder" value="Builder (Buildah rootless)" style="shape=mxgraph.k8s.container;whiteSpace=wrap;html=1;fontSize=12;fontColor=#1e293b;" parent="1" vertex="1">
          <mxGeometry x="500" y="170" width="100" height="60" as="geometry" />
        </mxCell>
        <mxCell id="pvc" value="Ephemeral PVC Workspace" style="shape=mxgraph.k8s.pvc;whiteSpace=wrap;html=1;fontSize=12;fontColor=#1e293b;" parent="1" vertex="1">
          <mxGeometry x="420" y="260" width="120" height="60" as="geometry" />
        </mxCell>
        <mxCell id="registry" value="Container Registry" style="shape=mxgraph.k8s.registry;whiteSpace=wrap;html=1;fontSize=12;fontColor=#1e293b;" parent="1" vertex="1">
          <mxGeometry x="660" y="170" width="120" height="60" as="geometry" />
        </mxCell>
        <mxCell id="secret" value="Secret" style="shape=mxgraph.k8s.secret;whiteSpace=wrap;html=1;fontSize=12;fontColor=#1e293b;" parent="1" vertex="1">
          <mxGeometry x="220" y="259" width="80" height="60" as="geometry" />
        </mxCell>
        <mxCell id="sa" value="Service&lt;br&gt;Account" style="shape=mxgraph.k8s.sa;whiteSpace=wrap;html=1;fontSize=12;fontColor=#1e293b;" parent="1" vertex="1">
          <mxGeometry x="80" y="170" width="80" height="60" as="geometry" />
        </mxCell>
        <mxCell id="rb" value="RoleBinding" style="shape=mxgraph.k8s.rb;whiteSpace=wrap;html=1;fontSize=12;fontColor=#1e293b;" parent="1" vertex="1">
          <mxGeometry x="80" y="260" width="80" height="60" as="geometry" />
        </mxCell>
        <mxCell id="svc" value="Service" style="shape=mxgraph.k8s.svc;whiteSpace=wrap;html=1;fontSize=12;fontColor=#1e293b;" parent="1" vertex="1">
          <mxGeometry x="810" y="260" width="80" height="60" as="geometry" />
        </mxCell>
        <mxCell id="e1" value="" style="edgeStyle=orthogonalEdgeStyle;rounded=1;html=1;endArrow=block;strokeColor=#1976d2;strokeWidth=2;" parent="1" source="ns" target="job" edge="1">
          <mxGeometry relative="1" as="geometry" />
        </mxCell>
        <mxCell id="e2" value="" style="edgeStyle=orthogonalEdgeStyle;rounded=1;html=1;endArrow=block;strokeColor=#1976d2;strokeWidth=2;" parent="1" source="job" target="pod" edge="1">
          <mxGeometry relative="1" as="geometry" />
        </mxCell>
        <mxCell id="e3" value="" style="edgeStyle=orthogonalEdgeStyle;rounded=1;html=1;endArrow=block;strokeColor=#388e3c;strokeWidth=2;" parent="1" source="pod" target="runner" edge="1">
          <mxGeometry relative="1" as="geometry" />
        </mxCell>
        <mxCell id="e4" value="" style="edgeStyle=orthogonalEdgeStyle;rounded=1;html=1;endArrow=block;strokeColor=#388e3c;strokeWidth=2;" parent="1" source="pod" target="builder" edge="1">
          <mxGeometry relative="1" as="geometry" />
        </mxCell>
        <mxCell id="e5" value="" style="edgeStyle=orthogonalEdgeStyle;rounded=1;html=1;endArrow=block;strokeColor=#8e24aa;strokeWidth=2;" parent="1" source="builder" target="pvc" edge="1">
          <mxGeometry relative="1" as="geometry" />
        </mxCell>
        <mxCell id="e6" value="" style="edgeStyle=orthogonalEdgeStyle;rounded=1;html=1;endArrow=block;strokeColor=#0288d1;strokeWidth=2;" parent="1" source="builder" target="registry" edge="1">
          <mxGeometry relative="1" as="geometry" />
        </mxCell>
        <mxCell id="e7" value="" style="edgeStyle=orthogonalEdgeStyle;rounded=1;html=1;dashed=1;endArrow=open;strokeColor=#8e24aa;fontColor=#8e24aa;entryX=0.75;entryY=1;entryDx=0;entryDy=0;exitX=0.5;exitY=0;exitDx=0;exitDy=0;" parent="1" source="pvc" target="pod" edge="1">
          <mxGeometry relative="1" as="geometry">
            <Array as="points">
              <mxPoint x="480" y="240" />
              <mxPoint x="490" y="240" />
              <mxPoint x="490" y="200" />
              <mxPoint x="495" y="200" />
            </Array>
          </mxGeometry>
        </mxCell>
        <mxCell id="e8" value="Secrets mounted" style="edgeStyle=orthogonalEdgeStyle;rounded=1;html=1;dashed=1;endArrow=open;strokeColor=#dc143c;fontColor=#dc143c;" parent="1" source="secret" edge="1">
          <mxGeometry x="-0.2394" y="-10" relative="1" as="geometry">
            <mxPoint x="470" y="140" as="targetPoint" />
            <Array as="points">
              <mxPoint x="250" y="210" />
              <mxPoint x="390" y="210" />
              <mxPoint x="390" y="150" />
              <mxPoint x="470" y="150" />
            </Array>
            <mxPoint as="offset" />
          </mxGeometry>
        </mxCell>
        <mxCell id="e9" value="SA attached" style="edgeStyle=orthogonalEdgeStyle;rounded=1;html=1;dashed=1;endArrow=open;strokeColor=#1976d2;fontColor=#1976d2;entryX=0.25;entryY=1;entryDx=0;entryDy=0;" parent="1" source="sa" target="pod" edge="1">
          <mxGeometry x="-0.0149" y="10" relative="1" as="geometry">
            <Array as="points">
              <mxPoint x="290" y="200" />
              <mxPoint x="290" y="180" />
              <mxPoint x="390" y="180" />
              <mxPoint x="390" y="150" />
              <mxPoint x="445" y="150" />
            </Array>
            <mxPoint x="-1" as="offset" />
          </mxGeometry>
        </mxCell>
        <mxCell id="e10" value="RBAC" style="edgeStyle=orthogonalEdgeStyle;rounded=1;html=1;dashed=1;endArrow=open;strokeColor=#6366f1;fontColor=#6366f1;" parent="1" source="rb" target="sa" edge="1">
          <mxGeometry relative="1" as="geometry" />
        </mxCell>
        <mxCell id="e11" value="Service for Registry" style="edgeStyle=orthogonalEdgeStyle;rounded=1;html=1;dashed=1;endArrow=open;strokeColor=#0288d1;fontColor=#0288d1;" parent="1" source="svc" target="registry" edge="1">
          <mxGeometry relative="1" as="geometry" />
        </mxCell>
        <mxCell id="k8slabel" value="Kubernetes Cluster" style="text;html=1;align=right;verticalAlign=bottom;fontSize=18;fontColor=#94a3b8;fontStyle=2;" parent="1" vertex="1">
          <mxGeometry x="1000" y="800" width="320" height="40" as="geometry" />
        </mxCell>
        <mxCell id="pS4S6j3qPtTCUqisYv8N-2" value="" style="aspect=fixed;sketch=0;html=1;dashed=0;whitespace=wrap;verticalLabelPosition=bottom;verticalAlign=top;fillColor=#2875E2;strokeColor=#ffffff;points=[[0.005,0.63,0],[0.1,0.2,0],[0.9,0.2,0],[0.5,0,0],[0.995,0.63,0],[0.72,0.99,0],[0.5,1,0],[0.28,0.99,0]];shape=mxgraph.kubernetes.icon2;prIcon=ns" vertex="1" parent="1">
          <mxGeometry x="30" y="30" width="50" height="48" as="geometry" />
        </mxCell>
        <mxCell id="pS4S6j3qPtTCUqisYv8N-3" value="" style="aspect=fixed;sketch=0;html=1;dashed=0;whitespace=wrap;verticalLabelPosition=bottom;verticalAlign=top;fillColor=#2875E2;strokeColor=#ffffff;points=[[0.005,0.63,0],[0.1,0.2,0],[0.9,0.2,0],[0.5,0,0],[0.995,0.63,0],[0.72,0.99,0],[0.5,1,0],[0.28,0.99,0]];shape=mxgraph.kubernetes.icon2;prIcon=job" vertex="1" parent="1">
          <mxGeometry x="180" y="30" width="50" height="48" as="geometry" />
        </mxCell>
        <mxCell id="pS4S6j3qPtTCUqisYv8N-4" value="" style="aspect=fixed;sketch=0;html=1;dashed=0;whitespace=wrap;verticalLabelPosition=bottom;verticalAlign=top;fillColor=#2875E2;strokeColor=#ffffff;points=[[0.005,0.63,0],[0.1,0.2,0],[0.9,0.2,0],[0.5,0,0],[0.995,0.63,0],[0.72,0.99,0],[0.5,1,0],[0.28,0.99,0]];shape=mxgraph.kubernetes.icon2;prIcon=pod" vertex="1" parent="1">
          <mxGeometry x="400" y="30" width="50" height="48" as="geometry" />
        </mxCell>
        <mxCell id="pS4S6j3qPtTCUqisYv8N-6" value="" style="aspect=fixed;sketch=0;html=1;dashed=0;whitespace=wrap;verticalLabelPosition=bottom;verticalAlign=top;fillColor=#2875E2;strokeColor=#ffffff;points=[[0.005,0.63,0],[0.1,0.2,0],[0.9,0.2,0],[0.5,0,0],[0.995,0.63,0],[0.72,0.99,0],[0.5,1,0],[0.28,0.99,0]];shape=mxgraph.kubernetes.icon2;prIcon=sa" vertex="1" parent="1">
          <mxGeometry x="40" y="176" width="50" height="48" as="geometry" />
        </mxCell>
        <mxCell id="pS4S6j3qPtTCUqisYv8N-7" value="" style="aspect=fixed;sketch=0;html=1;dashed=0;whitespace=wrap;verticalLabelPosition=bottom;verticalAlign=top;fillColor=#2875E2;strokeColor=#ffffff;points=[[0.005,0.63,0],[0.1,0.2,0],[0.9,0.2,0],[0.5,0,0],[0.995,0.63,0],[0.72,0.99,0],[0.5,1,0],[0.28,0.99,0]];shape=mxgraph.kubernetes.icon2;prIcon=rb" vertex="1" parent="1">
          <mxGeometry x="50" y="300" width="50" height="48" as="geometry" />
        </mxCell>
        <mxCell id="pS4S6j3qPtTCUqisYv8N-8" value="" style="aspect=fixed;sketch=0;html=1;dashed=0;whitespace=wrap;verticalLabelPosition=bottom;verticalAlign=top;fillColor=#2875E2;strokeColor=#ffffff;points=[[0.005,0.63,0],[0.1,0.2,0],[0.9,0.2,0],[0.5,0,0],[0.995,0.63,0],[0.72,0.99,0],[0.5,1,0],[0.28,0.99,0]];shape=mxgraph.kubernetes.icon2;prIcon=secret" vertex="1" parent="1">
          <mxGeometry x="190" y="300" width="50" height="48" as="geometry" />
        </mxCell>
        <mxCell id="pS4S6j3qPtTCUqisYv8N-10" value="" style="aspect=fixed;sketch=0;html=1;dashed=0;whitespace=wrap;verticalLabelPosition=bottom;verticalAlign=top;fillColor=#2875E2;strokeColor=#ffffff;points=[[0.005,0.63,0],[0.1,0.2,0],[0.9,0.2,0],[0.5,0,0],[0.995,0.63,0],[0.72,0.99,0],[0.5,1,0],[0.28,0.99,0]];shape=mxgraph.kubernetes.icon2;kubernetesLabel=1;prIcon=pvc" vertex="1" parent="1">
          <mxGeometry x="390" y="300" width="50" height="48" as="geometry" />
        </mxCell>
      </root>
    </mxGraphModel>
  </diagram>
</mxfile>

